<svg width="19" height="20" viewBox="0 0 19 20" fill="none" xmlns="http://www.w3.org/2000/svg">
<path fill-rule="evenodd" clip-rule="evenodd" d="M0.54358 0.0627743C0.350531 0.151183 0.127767 0.390205 0.0550821 0.586981C0.016928 0.690213 0 3.5869 0 10.0122V19.2884L0.116481 19.5216C0.180572 19.6498 0.29871 19.8037 0.379108 19.8636C0.52515 19.9725 0.532914 19.9726 9.45685 19.9863L18.3884 20L18.5843 19.8874C18.692 19.8255 18.8295 19.6851 18.8898 19.5754L18.9994 19.3759V9.99692C18.9994 -0.3969 19.0294 0.455479 18.6541 0.162777L18.4639 0.0144405L9.58141 0.00305852C2.23872 -0.00636471 0.671969 0.00395849 0.54358 0.0627743ZM4.60863 6.67158C4.60972 11.3627 4.61453 11.6189 4.70565 11.8241C5.0057 12.4997 5.9036 12.533 6.25221 11.8815C6.32961 11.7368 6.34405 11.5181 6.35844 10.2715L6.37506 8.82887L8.61042 8.82876C11.1152 8.82871 11.0488 8.83802 11.3579 8.44246C11.6379 8.08411 11.5485 7.50765 11.1701 7.23163L11.001 7.10833L8.68435 7.09351L6.36766 7.07874V4.40683V1.73497H11.8293H17.291V4.40609V7.0772L15.8285 7.09277C14.3919 7.10807 14.3631 7.1105 14.197 7.23163C13.9663 7.39992 13.855 7.63773 13.8534 7.966C13.8523 8.19439 13.8789 8.2757 14.0092 8.44246C14.3036 8.81918 14.3502 8.82871 15.9062 8.82876L17.291 8.82887V13.5405V18.2521H11.8331H6.37506L6.35844 16.8095C6.34405 15.5629 6.32961 15.3441 6.25221 15.1995C5.9036 14.548 5.0057 14.5813 4.70565 15.2568C4.62023 15.4492 4.60967 15.6242 4.60863 16.8624L4.60749 18.2521H3.18383H1.76017V9.99353V1.73497H3.18383H4.60749L4.60863 6.67158Z" fill="#A9AAAE"/>
</svg>
