<svg width="20" height="20" viewBox="0 0 20 20" fill="none" xmlns="http://www.w3.org/2000/svg">
<path fill-rule="evenodd" clip-rule="evenodd" d="M4.14454 0.0667419C3.95075 0.157437 3.79095 0.340901 3.73721 0.534376C3.715 0.614355 3.69673 0.8584 3.69661 1.07663L3.69638 1.4734L2.92396 1.49084C2.05941 1.51032 1.83402 1.55795 1.3498 1.82339C0.959798 2.0372 0.500025 2.52213 0.29951 2.93117C-0.0259216 3.59506 0.000516489 2.90352 0.000516489 10.7506C0.000516489 18.5833 -0.0247093 17.9084 0.292079 18.5549C0.583368 19.1495 1.14811 19.6408 1.8145 19.8793L2.15155 20H9.64105H17.1306L17.4434 19.8899C18.3221 19.5806 18.9708 18.8826 19.2129 17.9859C19.2772 17.7479 19.2816 17.2843 19.2816 10.7506C19.2816 2.90129 19.3082 3.59553 18.9814 2.92863C18.7516 2.45982 18.2859 1.99547 17.815 1.7657C17.3564 1.54192 17.0203 1.48157 16.2327 1.48157H15.5857L15.5855 1.0807C15.5852 0.604539 15.5433 0.430032 15.3862 0.251105C15.0471 -0.135103 14.4003 -0.0535986 14.1791 0.403202C14.113 0.539812 14.0996 0.644939 14.0996 1.02462V1.48157H9.64414H5.18877L5.17586 0.979874C5.1642 0.52542 5.15411 0.465269 5.06874 0.340822C4.85489 0.0291184 4.46923 -0.0852383 4.14454 0.0667419ZM3.70334 3.42728C3.72102 3.96199 3.78062 4.12734 4.01735 4.29884C4.30207 4.5051 4.66442 4.48484 4.93467 4.24757C5.14442 4.0634 5.18255 3.93586 5.18255 3.41875V2.96774H9.64105H14.0996V3.41875C14.0996 3.93586 14.1377 4.0634 14.3474 4.24757C14.6232 4.48965 15.0024 4.50178 15.296 4.27784C15.5033 4.11972 15.5617 3.94407 15.5788 3.42728L15.594 2.96774H16.2141C16.7429 2.96774 16.8658 2.97951 17.0479 3.04768C17.317 3.14835 17.5574 3.37906 17.6917 3.66565L17.7954 3.88682L17.8082 5.08944L17.821 6.29206H9.64105H1.46115L1.47452 5.08944C1.48614 4.03938 1.4967 3.86699 1.55751 3.73038C1.6685 3.48117 1.81325 3.29489 1.98345 3.18226C2.26364 2.99684 2.38226 2.97345 3.05674 2.97048L3.68813 2.96774L3.70334 3.42728ZM17.8061 12.6963L17.7954 17.6143L17.6932 17.8294C17.5708 18.0872 17.3598 18.3045 17.1149 18.4252L16.935 18.5138H9.64105H2.3471L2.16614 18.4247C1.91595 18.3014 1.70957 18.0895 1.5888 17.832L1.48668 17.6143L1.47605 12.6963L1.46537 7.77823H9.64105H17.8167L17.8061 12.6963Z" fill="#A9AAAE"/>
</svg>
