<svg width="80" height="80" viewBox="0 0 80 80" fill="none" xmlns="http://www.w3.org/2000/svg">
<circle cx="40" cy="40" r="40" fill="#EFF7FC"/>
<path fill-rule="evenodd" clip-rule="evenodd" d="M30.2587 25.25V26.5L29.337 26.5011C28.7704 26.5017 28.2467 26.5376 27.9778 26.594C26.5713 26.8894 25.3989 28.062 25.1035 29.4688C24.9655 30.1266 24.9655 52.3734 25.1035 53.0312C25.3989 54.438 26.5713 55.6106 27.9778 55.906C28.3509 55.9843 29.7483 55.998 37.4772 55.9989L46.5392 56L51.7675 50.5781L56.9959 45.1562L56.999 37.5312C57.0024 29.0731 57.0192 29.4416 56.5889 28.5625C56.2727 27.9166 55.5878 27.2316 54.9421 26.9154C54.2916 26.5969 53.775 26.5024 52.6768 26.5011L51.7551 26.5V25.25V24H50.5053H49.2555V25.25V26.5H41.0069H32.7583V25.25V24H31.5085H30.2587V25.25ZM30.2587 30.25V31.5H31.5085H32.7583V30.25V29H41.0069H49.2555V30.25V31.5H50.5053H51.7551V30.2444V28.9888L52.7128 29.01C53.6133 29.03 53.6843 29.0406 53.9011 29.1875C54.028 29.2734 54.2086 29.4538 54.3026 29.5883L54.4734 29.8327L54.4927 31.5414L54.512 33.25H41.0106H27.5091L27.5095 31.6719C27.5097 30.7977 27.5381 29.9919 27.5732 29.8655C27.6505 29.5871 28.0779 29.1453 28.3446 29.068C28.4522 29.0368 28.9269 29.0087 29.3994 29.0056L30.2587 29V30.25ZM54.5046 39.5625V43.375L51.3333 43.3761C47.7878 43.3773 47.633 43.3915 46.8184 43.7904C46.1727 44.1066 45.4878 44.7916 45.1716 45.4375C44.7701 46.2576 44.7586 46.3885 44.7573 50.1416L44.7563 53.5018L36.5499 53.4853L28.3436 53.4688L28.1128 53.3125C27.9859 53.2266 27.8051 53.0462 27.7112 52.9116L27.5404 52.6669L27.5239 44.2085L27.5074 35.75H41.006H54.5046V39.5625ZM52.7445 45.9261C52.7331 45.9542 51.5005 47.2467 50.0054 48.7984L47.2871 51.6196L47.2707 49.3037C47.2605 47.8693 47.2786 46.8976 47.3182 46.7507C47.3953 46.4642 47.8186 46.0221 48.0913 45.943C48.3354 45.8723 52.7731 45.8561 52.7445 45.9261Z" fill="#205694"/>
</svg>
