<svg width="80" height="80" viewBox="0 0 80 80" fill="none" xmlns="http://www.w3.org/2000/svg">
<circle cx="40" cy="40" r="40" fill="#EFF7FC"/>
<path fill-rule="evenodd" clip-rule="evenodd" d="M28.3313 24.0794C26.0847 24.5365 24.4128 26.2762 24.063 28.521C24.0051 28.8922 23.9903 31.9376 24.0057 40.3069C24.0284 52.6272 23.9982 51.6565 24.3918 52.709C24.8343 53.8923 26.132 55.1903 27.3162 55.6341C28.3625 56.0262 27.4382 55.9996 40.0127 55.9996C52.5872 55.9996 51.663 56.0262 52.7093 55.6341C53.8938 55.1902 55.1905 53.893 55.6342 52.708C56.0262 51.6613 55.9996 52.5859 55.9996 40.0064C55.9996 29.4568 55.9903 28.4535 55.8883 28.0866C55.6918 27.3794 55.4991 26.9352 55.1724 26.4367C54.4131 25.2777 53.4315 24.5709 51.9622 24.1253C51.625 24.0231 50.6356 24.0127 40.1796 24.0024C30.9451 23.9933 28.6823 24.008 28.3313 24.0794ZM51.4577 26.2189C52.6512 26.5298 53.6051 27.5336 53.8288 28.7137C53.8681 28.9209 53.897 30.2144 53.897 31.7684C53.897 34.299 53.8898 34.4638 53.7792 34.4638C53.6674 34.4638 26.801 30.6372 26.3455 30.5564L26.1285 30.5179V29.7336C26.1285 28.5064 26.368 27.818 27.0401 27.1131C27.4375 26.6962 27.9837 26.3716 28.539 26.2222C29.0973 26.0719 50.882 26.0688 51.4577 26.2189ZM32.032 33.5284C35.1114 33.9688 37.6457 34.344 37.6638 34.3621C37.688 34.3864 34.3431 51.2875 33.8606 53.5789L33.7938 53.8961H31.4388C30.1161 53.8961 28.9263 53.8663 28.7245 53.8279C27.854 53.6628 26.9476 53.0023 26.539 52.2353C26.1063 51.4231 26.1285 51.9832 26.1285 41.8955V32.7276H26.2809C26.3648 32.7276 28.9528 33.0879 32.032 33.5284ZM46.7564 35.6318C50.4818 36.1639 53.6125 36.6171 53.7134 36.6387L53.897 36.6781V43.8089C53.897 48.2724 53.872 51.0742 53.8303 51.2994C53.604 52.5204 52.5291 53.595 51.3009 53.8279C50.7305 53.9362 36.0077 53.9208 36.0077 53.812C36.0077 53.7657 36.8638 49.4463 37.9101 44.2134C38.9564 38.9804 39.8125 34.6911 39.8125 34.6815C39.8125 34.6425 40.2524 34.7026 46.7564 35.6318ZM45.6198 36.841C44.0396 37.1322 42.8275 37.7669 41.8596 38.8101C40.0029 40.8112 39.6374 43.6705 40.9212 46.1499C41.2422 46.7697 45.5017 52.3996 45.842 52.6539C46.1063 52.8512 46.7354 52.8512 46.9996 52.6539C47.3323 52.4053 51.5925 46.7721 51.9183 46.1499C53.2055 43.6915 52.838 40.8103 50.9821 38.8101C49.8082 37.5449 48.3596 36.8891 46.6211 36.8358C46.1622 36.8217 45.7116 36.8241 45.6198 36.841ZM47.3716 39.0671C48.9627 39.4742 50.1223 40.6881 50.4537 42.2938C50.584 42.9247 50.5864 43.2594 50.4649 43.8945C50.3494 44.4982 50.1115 45.0991 49.8205 45.5223C49.3712 46.1756 46.4762 49.9229 46.4208 49.9229C46.3654 49.9229 43.4704 46.1756 43.0212 45.5223C42.7302 45.0991 42.4923 44.4982 42.3768 43.8945C42.2553 43.2594 42.2576 42.9247 42.3879 42.2938C42.8657 39.9795 45.1522 38.4993 47.3716 39.0671ZM45.9202 41.1328C45.3059 41.2942 44.7666 41.7366 44.4847 42.3102C44.2593 42.7687 44.2535 43.63 44.4727 44.0819C44.7017 44.5538 44.9731 44.8378 45.4313 45.0849C45.8182 45.2937 45.9009 45.3126 46.4208 45.3113C46.903 45.31 47.0394 45.2831 47.3291 45.1326C47.8322 44.8711 48.0416 44.6687 48.2942 44.2001C48.5013 43.8158 48.521 43.7301 48.521 43.2117C48.521 42.6929 48.5014 42.6078 48.2933 42.2217C47.9183 41.5259 47.3381 41.1521 46.5619 41.1062C46.3191 41.0918 46.0303 41.1038 45.9202 41.1328Z" fill="#205694"/>
</svg>
