<svg width="80" height="80" viewBox="0 0 80 80" fill="none" xmlns="http://www.w3.org/2000/svg">
<circle cx="40" cy="40" r="40" fill="#EFF7FC"/>
<path fill-rule="evenodd" clip-rule="evenodd" d="M38.6595 21.0187C38.5163 21.0355 38.0811 21.0836 37.6924 21.1258C35.2381 21.392 32.5202 22.3125 30.3271 23.6205C27.5359 25.2851 25.2673 27.5528 23.6019 30.3428C22.3041 32.517 21.442 35.0437 21.0903 37.7048C20.9699 38.6159 20.9699 41.4038 21.0903 42.3149C21.442 44.976 22.3041 47.5027 23.6019 49.677C25.2673 52.467 27.5359 54.7346 30.3271 56.3992C32.5023 57.6965 35.0301 58.5582 37.6924 58.9097C38.6039 59.0301 41.393 59.0301 42.3045 58.9097C46.9365 58.298 50.8628 56.2644 54.0672 52.8176C55.84 50.9106 57.2269 48.5387 58.078 45.9584C58.7489 43.9244 59 42.3047 59 40.0099C59 38.3122 58.9283 37.5621 58.6234 36.069C57.5781 30.9495 54.2875 26.3744 49.6698 23.6205C47.5168 22.3365 44.9493 21.4566 42.3789 21.1219C41.7265 21.0369 39.1207 20.9646 38.6595 21.0187ZM42.6392 23.4223C44.4174 23.7192 45.7303 24.1366 47.3257 24.9125C49.4602 25.9503 51.3511 27.4125 52.8106 29.1539C56.6836 33.7748 57.8208 39.9521 55.8426 45.6238C55.2563 47.3046 54.0557 49.3803 52.8106 50.8659C50.047 54.163 45.8595 56.342 41.5234 56.7393C37.0756 57.1467 32.6257 55.7373 29.1377 52.8164C25.8392 50.054 23.6592 45.8684 23.2617 41.5342C22.8541 37.0883 24.2641 32.6404 27.1863 29.1539C29.3942 26.5197 32.6324 24.5133 35.9874 23.7006C36.729 23.521 37.9473 23.316 38.6595 23.2511C39.4601 23.1781 41.7722 23.2775 42.6392 23.4223ZM33.4659 28.6752C32.7753 28.861 32.4086 29.1404 30.9946 30.5589C29.7257 31.8317 29.5909 31.9927 29.3068 32.5743C28.8947 33.4176 28.7654 33.9337 28.7134 34.9434C28.3943 41.1385 35.801 49.5932 42.8996 51.1367C43.7664 51.3252 45.6291 51.327 46.3215 51.1401C46.9919 50.9591 47.6607 50.6344 48.1641 50.2456C48.9365 49.6489 50.8755 47.6001 51.1068 47.136C51.4089 46.53 51.5072 45.8669 51.3933 45.2033C51.2358 44.285 50.9868 43.9238 49.4489 42.3823C48.2999 41.2304 47.9885 40.9601 47.5832 40.7625C46.8923 40.4258 46.2439 40.338 45.5265 40.4843C44.7795 40.6365 44.3288 40.9201 43.4808 41.7712L42.7899 42.4647L40.1698 39.8465L37.5496 37.2284L38.3095 36.4442C39.1602 35.5663 39.4303 35.1111 39.5481 34.3575C39.6479 33.7191 39.5415 33.0498 39.2409 32.4256C39.0467 32.0222 38.7794 31.7131 37.625 30.5576C36.5431 29.4745 36.1446 29.1242 35.7955 28.9496C35.019 28.5613 34.2335 28.4687 33.4659 28.6752ZM34.619 30.8677C34.7342 30.9105 35.373 31.4878 36.0386 32.1504C37.7849 33.8886 37.784 33.8652 36.1641 35.4742C35.567 36.0671 35.0307 36.6427 34.9722 36.7531C34.8339 37.0138 34.8365 37.4351 34.9782 37.7335C35.0401 37.8639 36.6887 39.5645 38.6418 41.5127C41.7563 44.6194 42.2272 45.0611 42.4719 45.1059C43.0861 45.2184 43.2152 45.1404 44.4965 43.8818C45.7311 42.6691 45.8754 42.575 46.3587 42.6673C46.6657 42.7258 49.0348 45.057 49.1538 45.4177C49.3223 45.9277 49.2362 46.063 47.9017 47.3841C47.2167 48.0623 46.5543 48.6688 46.4298 48.7318C44.7685 49.5716 41.7789 48.8661 38.8454 46.942C34.2335 43.9169 30.7559 38.6899 30.9438 35.0652C31.008 33.8272 31.1094 33.641 32.4778 32.2488C33.9437 30.7574 34.0825 30.6679 34.619 30.8677Z" fill="#205694"/>
</svg>
